<?xml version="1.0" encoding="UTF-8" standalone="no"?>
<!-- Created with Inkscape (http://www.inkscape.org/) -->

<svg
   xmlns:dc="http://purl.org/dc/elements/1.1/"
   xmlns:cc="http://creativecommons.org/ns#"
   xmlns:rdf="http://www.w3.org/1999/02/22-rdf-syntax-ns#"
   xmlns:svg="http://www.w3.org/2000/svg"
   xmlns="http://www.w3.org/2000/svg"
   xmlns:sodipodi="http://sodipodi.sourceforge.net/DTD/sodipodi-0.dtd"
   xmlns:inkscape="http://www.inkscape.org/namespaces/inkscape"
   width="180"
   height="120"
   viewBox="0 0 180.00001 120"
   id="svg2"
   version="1.1"
   inkscape:version="0.91 r13725"
   sodipodi:docname="logo2.svg"
   inkscape:export-filename="/home/damian/Projects/dvh/art/logo small.png"
   inkscape:export-xdpi="90"
   inkscape:export-ydpi="90">
  <defs
     id="defs4">
    <clipPath
       clipPathUnits="userSpaceOnUse"
       id="clipPath31253">
      <ellipse
         style="fill:#ff0000"
         id="ellipse31255"
         cx="643.26514"
         cy="535.5177"
         rx="108.89444"
         ry="112.07642" />
    </clipPath>
  </defs>
  <sodipodi:namedview
     id="base"
     pagecolor="#ffffff"
     bordercolor="#666666"
     borderopacity="1.0"
     inkscape:pageopacity="0.0"
     inkscape:pageshadow="2"
     inkscape:zoom="1"
     inkscape:cx="43.401363"
     inkscape:cy="165.36551"
     inkscape:document-units="px"
     inkscape:current-layer="layer1"
     showgrid="false"
     inkscape:window-width="1317"
     inkscape:window-height="744"
     inkscape:window-x="49"
     inkscape:window-y="24"
     inkscape:window-maximized="1"
     fit-margin-top="0"
     fit-margin-left="0"
     fit-margin-right="0"
     fit-margin-bottom="0"
     units="px" />
  <metadata
     id="metadata7">
    <rdf:RDF>
      <cc:Work
         rdf:about="">
        <dc:format>image/svg+xml</dc:format>
        <dc:type
           rdf:resource="http://purl.org/dc/dcmitype/StillImage" />
        <dc:title></dc:title>
      </cc:Work>
    </rdf:RDF>
  </metadata>
  <g
     inkscape:label="Layer 1"
     inkscape:groupmode="layer"
     id="layer1"
     transform="translate(-32.659969,-159.73816)">
    <rect
       style="fill:#ffe6d5;fill-opacity:1;stroke:#000000;stroke-width:10;stroke-linecap:round;stroke-linejoin:round;stroke-miterlimit:4;stroke-dasharray:none;stroke-dashoffset:0;stroke-opacity:1"
       id="rect3002"
       width="1097.1429"
       height="545.71436"
       x="-346.91147"
       y="-85.119011" />
    <g
       id="g31288"
       transform="matrix(0.43236744,0,0,0.43236744,-61.770383,-25.962062)">
      <g
         clip-path="url(#clipPath31253)"
         transform="translate(-175.86757,30.001546)"
         id="g31082">
        <path
           inkscape:connector-curvature="0"
           id="path31098"
           d="m 533.82953,535.2193 0,-107.599 107.599,0 107.599,0 0,107.599 0,107.599 -107.599,0 -107.599,0 0,-107.599 z"
           style="fill:#c7b2a0" />
        <path
           inkscape:connector-curvature="0"
           id="path31096"
           d="m 589.87068,640.54601 c 2.3569,-1.54462 -0.72862,-2.03714 -10.3175,-1.6469 -12.2301,0.49772 -13.43481,0.16426 -11.36675,-3.14626 1.70294,-2.72605 1.30646,-5.2395 -1.50282,-9.527 -4.43621,-6.77052 -10.04766,-7.33609 -20.07594,-2.02345 -13.49649,7.14999 -13.0874,8.22936 -12.34104,-32.56179 0.49323,-26.95646 1.41258,-37.22846 3.2998,-36.8689 1.43884,0.27412 13.54372,-6.16932 26.89975,-14.31877 13.35602,-8.14945 30.17499,-18.31065 37.37549,-22.58044 9.9393,-5.89387 12.83284,-8.75356 12.01636,-11.8758 -1.23676,-4.72936 2.38885,-6.64004 12.62273,-6.65211 7.24068,-0.009 21.67271,-7.26526 21.67271,-10.89748 0,-1.10284 -6.30463,-2.49549 -14.01029,-3.09478 l -14.01029,-1.08961 -4.99071,5.86389 c -4.15275,4.87931 -5.35353,5.31346 -7.15151,2.58569 -2.63005,-3.99013 -28.25507,7.17184 -31.83916,13.86879 -1.17155,2.18906 -3.8599,3.98957 -5.97411,4.00114 -12.16924,0.0666 -30.8418,16.87842 -32.75837,29.49397 -0.12486,0.82194 -0.92077,2.18817 -1.76868,3.03608 -0.8479,0.8479 -1.63336,-24.79092 -1.74545,-56.97517 l -0.2038,-58.51681 107.66322,0 107.66321,0 0,107.599 0,107.599 -74.10661,0 c -48.83358,0 -73.63413,-0.76448 -72.72119,-2.24165 0.76198,-1.2329 -0.6916,-2.24164 -3.23018,-2.24164 -2.53857,0 -4.61558,1.00874 -4.61558,2.24164 0,1.23291 -1.7653,2.2262 -3.92288,2.20732 -3.35775,-0.0294 -3.43849,-0.35178 -0.56041,-2.23796 z m -25.37967,-38.05168 c 6.38411,-3.66146 12.24391,-7.68696 13.02175,-8.94554 2.26675,-3.66768 -9.19556,-2.66672 -12.30019,1.07412 -1.53483,1.84936 -4.32117,3.36247 -6.19188,3.36247 -3.2782,0 -9.28159,6.06621 -9.42835,9.527 -0.12216,2.88087 2.90229,1.8622 14.89867,-5.01805 z m 75.82913,-33.66409 c 2.23837,-2.47337 3.50169,-5.06511 2.80737,-5.75943 -1.90491,-1.9049 -10.66556,4.20072 -10.66556,7.43322 0,4.13616 3.22118,3.45005 7.85819,-1.67379 z m 37.28951,-26.92229 c 19.54697,-11.3449 26.17373,-16.81368 23.5514,-19.43601 -1.52622,-1.52622 -3.04633,-0.83958 -26.98109,12.18742 -15.19906,8.27241 -25.71066,18.4949 -19.01456,18.49158 1.69151,-8.4e-4 11.79142,-5.06019 22.44425,-11.24299 z m -54.25992,5.07999 c 4.32753,-3.51162 4.49681,-4.38359 1.61473,-8.31746 -3.9915,-5.44818 -14.91897,-1.71725 -14.91897,5.09374 0,8.07036 5.64568,9.43835 13.30424,3.22372 z m 40.49526,-81.25966 c 0,-1.23291 -0.44484,-2.24165 -0.98853,-2.24165 -0.54369,0 -1.61196,1.00874 -2.37394,2.24165 -0.76198,1.2329 -0.31714,2.24164 0.98853,2.24164 1.30566,0 2.37394,-1.00874 2.37394,-2.24164 z"
           style="fill:#a99e95" />
        <path
           inkscape:connector-curvature="0"
           id="path31094"
           d="m 602.04275,640.83065 c 2.99368,-4.84388 -5.31467,-7.54452 -15.39864,-5.00535 -13.62681,3.43127 -14.01293,3.34172 -15.75906,-3.65482 -1.83226,-7.34164 -7.40055,-14.01028 -11.69854,-14.01028 -1.69926,0 -8.09973,2.53884 -14.22327,5.64187 l -11.13371,5.64188 0,-5.45507 c 0,-3.00029 1.26093,-5.96387 2.80206,-6.58573 2.24164,-0.90452 2.24164,-1.16605 0,-1.30763 -2.08004,-0.13137 -2.80206,-7.27543 -2.80206,-27.72519 l 0,-27.54822 11.76864,-6.83782 c 31.41382,-18.25207 66.14173,-39.9943 71.17226,-44.55909 3.08226,-2.7969 8.12596,-5.83173 11.20822,-6.74407 9.53292,-2.82172 24.65811,-12.55645 24.65811,-15.87022 0,-2.14593 -2.68322,-3.14946 -8.42097,-3.14946 -4.63154,0 -11.74905,-0.95449 -15.81671,-2.12107 -6.18326,-1.77334 -8.00812,-1.40584 -11.1312,2.24164 -2.05451,2.3995 -6.06191,4.36272 -8.90533,4.36272 -6.14412,0 -29.84006,11.57894 -34.03158,16.62942 -1.61833,1.94996 -4.5842,3.5789 -6.59082,3.61986 -9.70931,0.19818 -34.09124,25.57573 -30.365,31.60492 0.55594,0.89953 0.0481,2.23048 -1.12847,2.95766 -1.33507,0.82511 -2.21565,-20.6054 -2.34243,-57.00708 l -0.20315,-58.32922 107.66322,0 107.66321,0 0,72.66669 c 0,56.0359 -0.64129,72.92545 -2.80206,73.79734 -2.24164,0.90452 -2.24164,1.16605 0,1.30762 2.10925,0.13322 2.80206,8.49073 2.80206,33.80166 l 0,33.62469 -74.10661,0 c -42.5204,0 -73.58301,-0.84719 -72.87817,-1.98765 z M 568.4484,601.90826 c 6.06667,-4.00694 11.43508,-8.54627 11.9298,-10.0874 1.35696,-4.22712 -14.35055,-3.67613 -15.97627,0.56041 -0.70966,1.84936 -2.92556,3.36247 -4.92421,3.36247 -3.47346,0 -11.96744,8.2452 -12.12374,11.76864 -0.1796,4.04874 10.96053,1.08916 21.09442,-5.60412 z m 40.83973,-18.58807 c 7.28459,-4.26905 9.72394,-7.07976 9.72394,-11.20426 l 0,-5.50564 -16.12914,8.59424 c -8.87103,4.72683 -16.52065,9.76874 -16.99915,11.20425 -1.58935,4.76805 13.36563,2.79449 23.40435,-3.08859 z m 34.51628,-16.54947 c 4.34605,-5.40809 13.3943,-12.05215 23.48241,-17.24297 30.75976,-15.8274 45.6779,-29.99997 31.57816,-29.99997 -2.9313,0 -6.42865,1.32422 -7.77188,2.94272 -1.34323,1.61849 -8.94957,6.21265 -16.90298,10.20925 -7.95342,3.99659 -16.85603,9.6618 -19.78358,12.58935 -2.92755,2.92756 -7.86192,5.9601 -10.96527,6.73899 -3.10335,0.77889 -8.49933,3.69416 -11.99106,6.47837 l -6.34862,5.06221 3.93799,6.01013 c 5.15697,7.87053 6.3858,7.63849 14.76483,-2.78808 z m -32.40967,-9.40499 c 14.76096,-8.10129 16.74561,-9.93336 16.14634,-14.90502 -1.03102,-8.55357 -6.80091,-11.13097 -14.14534,-6.31872 -4.99837,3.27506 -5.83916,5.12637 -4.76572,10.49355 1.30429,6.52143 -3.19379,9.51205 -6.43029,4.27528 -2.59633,-4.20094 -5.60412,-2.25594 -5.60412,3.62391 0,4.76194 -0.84355,5.64497 -4.48329,4.69316 -4.34301,-1.13572 -6.251,2.61789 -2.98886,5.88002 2.57919,2.57919 4.99606,1.73901 22.27128,-7.74218 z m 57.2406,-85.3326 c 3.19316,-5.03528 2.26525,-15.27143 -1.38436,-15.27143 -3.39974,0 -26.86585,14.18084 -28.89255,17.46009 -0.61887,1.00137 5.52042,1.5806 13.64288,1.2872 9.23758,-0.33369 15.46688,-1.63537 16.63403,-3.47586 z"
           style="fill:#ccac32" />
        <path
           inkscape:connector-curvature="0"
           id="path31092"
           d="m 600.60958,636.90498 c -3.13698,-3.13698 -5.14697,-3.30021 -13.80205,-1.12083 -13.80874,3.47708 -14.1735,3.3943 -15.92248,-3.61367 -1.83226,-7.34164 -7.40055,-14.01028 -11.69854,-14.01028 -1.69926,0 -8.09973,2.53884 -14.22327,5.64187 l -11.13371,5.64188 0,-5.45507 c 0,-3.00029 1.26093,-5.96387 2.80206,-6.58573 2.24164,-0.90452 2.24164,-1.16605 0,-1.30763 -1.54113,-0.0973 -2.80206,-1.24524 -2.80206,-2.55091 0,-1.30567 0.89406,-1.82139 1.98679,-1.14604 3.59426,2.22137 4.88406,-8.64761 1.3407,-11.29784 -2.4822,-1.85655 -3.32749,-7.28867 -3.32749,-21.3837 l 0,-18.89492 11.76864,-6.83782 c 31.41382,-18.25207 66.14173,-39.9943 71.17226,-44.55909 3.08226,-2.7969 8.12596,-5.83173 11.20822,-6.74407 9.53292,-2.82172 24.65811,-12.55645 24.65811,-15.87022 0,-2.14593 -2.68322,-3.14946 -8.42097,-3.14946 -4.63154,0 -11.74905,-0.95449 -15.81671,-2.12107 -6.18326,-1.77334 -8.00812,-1.40584 -11.1312,2.24164 -2.05451,2.3995 -6.06191,4.36272 -8.90533,4.36272 -6.14412,0 -29.84006,11.57894 -34.03158,16.62942 -1.61833,1.94996 -4.4379,3.54539 -6.26572,3.54539 -1.82782,0 -7.75675,2.99209 -13.1754,6.64909 -10.78183,7.27657 -11.63931,7.12904 -6.2622,-1.07746 4.95067,-7.55568 66.84288,-43.94587 79.23976,-46.58987 5.51274,-1.17575 12.5845,-3.93773 15.71502,-6.13773 14.16487,-9.95448 45.03974,-4.70483 41.94439,7.13181 -1.4733,5.63391 -0.51238,5.38564 17.80377,-4.59981 18.05117,-9.84099 17.38014,-9.99153 27.21037,6.10453 9.14576,14.97531 9.20968,19.73328 0.33064,24.61341 -17.44576,9.58861 -26.67699,16.80079 -26.67699,20.84221 0,3.00375 -1.58227,4.27205 -5.32963,4.27205 -2.9313,0 -6.42865,1.32422 -7.77188,2.94272 -1.34323,1.61849 -8.94957,6.21265 -16.90298,10.20925 -7.95342,3.99659 -16.85603,9.6618 -19.78358,12.58935 -2.92755,2.92756 -7.86192,5.9601 -10.96527,6.73899 -3.10335,0.77889 -8.49933,3.69416 -11.99106,6.47837 l -6.34862,5.06221 3.93799,6.01013 c 5.15138,7.86199 6.38924,7.63421 14.6977,-2.70455 4.18446,-5.20701 13.47521,-12.08052 23.0825,-17.07699 8.84356,-4.59927 20.96545,-11.8402 26.93752,-16.09094 l 10.85833,-7.72862 -1.49186,7.43286 c -0.91028,4.53526 -4.67301,10.20983 -9.65208,14.55628 l -8.16021,7.12343 6.63951,1.47841 c 7.66473,1.70668 24.78136,6.27086 42.53465,11.34192 6.79683,1.94145 11.781,4.4633 11.07594,5.60412 -0.70506,1.14081 -0.21366,2.07421 1.09201,2.07421 2.95904,0 3.13531,5.98979 0.22913,7.78591 -2.2634,1.39885 -29.23336,-4.87323 -54.17111,-12.59793 l -14.84547,-4.59852 -17.61152,10.30938 c -9.68634,5.67016 -18.88001,10.30938 -20.43037,10.30938 -1.55037,0 -4.2601,3.4494 -6.02162,7.66533 -3.77778,9.0415 -10.32994,13.15183 -17.92591,11.24536 -8.72201,-2.18908 -13.53972,7.11417 -11.71667,22.62553 1.60724,13.6751 1.58554,13.72762 -3.55047,8.59161 z m -17.99177,-10.33861 c 1.24447,-1.54113 2.96976,-7.08921 3.83398,-12.32905 1.82368,-11.05715 -2.93448,-13.05604 -12.54807,-5.27143 l -5.2554,4.25557 3.84997,8.07348 c 4.08685,8.57021 6.45824,9.8055 10.11952,5.27143 z M 568.4484,601.90826 c 6.06667,-4.00694 11.43508,-8.54627 11.9298,-10.0874 1.35696,-4.22712 -14.35055,-3.67613 -15.97627,0.56041 -0.70966,1.84936 -2.92556,3.36247 -4.92421,3.36247 -3.47346,0 -11.96744,8.2452 -12.12374,11.76864 -0.1796,4.04874 10.96053,1.08916 21.09442,-5.60412 z m 52.80532,-11.76864 c 0,-3.77281 -0.41055,-3.92442 -5.42078,-2.00181 -5.00873,1.92203 -4.40715,5.36428 0.93749,5.36428 2.49071,0 4.48329,-1.49443 4.48329,-3.36247 z m -11.96559,-6.81943 c 7.28459,-4.26905 9.72394,-7.07976 9.72394,-11.20426 l 0,-5.50564 -16.12914,8.59424 c -8.87103,4.72683 -16.52065,9.76874 -16.99915,11.20425 -1.58935,4.76805 13.36563,2.79449 23.40435,-3.08859 z m 2.10661,-25.95446 c 14.76096,-8.10129 16.74561,-9.93336 16.14634,-14.90502 -1.03102,-8.55357 -6.80091,-11.13097 -14.14534,-6.31872 -4.99837,3.27506 -5.83916,5.12637 -4.76572,10.49355 1.30429,6.52143 -3.19379,9.51205 -6.43029,4.27528 -2.59633,-4.20094 -5.60412,-2.25594 -5.60412,3.62391 0,4.76194 -0.84355,5.64497 -4.48329,4.69316 -4.34301,-1.13572 -6.251,2.61789 -2.98886,5.88002 2.57919,2.57919 4.99606,1.73901 22.27128,-7.74218 z m 57.2406,-85.3326 c 3.19316,-5.03528 2.26525,-15.27143 -1.38436,-15.27143 -3.39974,0 -26.86585,14.18084 -28.89255,17.46009 -0.61887,1.00137 5.52042,1.5806 13.64288,1.2872 9.23758,-0.33369 15.46688,-1.63537 16.63403,-3.47586 z m -134.19671,67.57328 c -0.18176,-2.41291 0.52632,-4.38711 1.57351,-4.38711 1.04719,0 1.68619,1.48391 1.42,3.29759 -0.7668,5.2245 -2.63092,5.90298 -2.99351,1.08952 z"
           style="fill:#a08b64" />
        <path
           inkscape:connector-curvature="0"
           id="path31090"
           d="m 570.54698,627.90925 c -5.43299,-11.12523 -12.91167,-12.30295 -26.72397,-4.20841 l -9.99348,5.85657 0,-5.69861 c 0,-3.13423 0.91006,-5.6986 2.02236,-5.6986 1.11229,0 3.14186,-3.21141 4.51014,-7.13647 2.41118,-6.91673 0.72907,-10.64844 -4.85127,-10.76237 -3.02309,-0.0617 -1.94478,-33.17847 1.12083,-34.42238 2.185,-0.88659 2.13809,-1.60291 -0.21301,-3.2528 -2.31806,-1.62671 -1.76206,-2.43031 2.40515,-3.47622 2.98112,-0.74821 12.91219,-6.27355 22.06905,-12.27853 18.51863,-12.14434 47.37488,-29.93623 73.36853,-45.23682 9.42544,-5.54807 18.42278,-12.60926 19.9941,-15.69152 1.57131,-3.08226 3.97187,-5.31711 5.33457,-4.96632 5.29348,1.36264 10.70577,-2.23021 12.91762,-8.57515 2.40968,-6.91239 11.5122,-9.66728 11.5122,-3.48418 0,2.40057 2.26468,2.86108 9.527,1.93726 11.71894,-1.49072 17.37275,-4.24034 17.37275,-8.44889 0,-5.49529 8.11712,-8.37499 12.17338,-4.31873 1.93498,1.93498 3.51814,4.8818 3.51814,6.5485 0,1.6667 2.59464,6.11392 5.76587,9.88271 3.36548,3.99965 5.46522,8.92338 5.0437,11.82712 -0.67548,4.65323 -11.48788,12.8858 -18.22186,13.87414 -1.63106,0.23939 -6.53826,3.93412 -10.90487,8.21051 -8.14038,7.97218 -12.64221,10.97433 -32.11987,21.4199 -6.16453,3.30594 -21.29563,12.61869 -33.62469,20.69501 -12.32905,8.07632 -26.95579,17.12739 -32.50386,20.1135 -29.45251,15.85202 -35.94558,18.6773 -39.98089,17.39654 -3.13512,-0.99505 -4.63177,-0.0806 -5.53766,3.38356 -0.94433,3.61109 -2.3546,4.39382 -5.89305,3.27077 -3.32561,-1.05552 -5.08814,-0.31404 -6.18291,2.60107 -0.8422,2.24259 -2.9458,5.13926 -4.67467,6.43703 -2.67604,2.00877 -2.63101,2.78483 0.30289,5.21974 2.87409,2.38529 5.85009,1.51587 17.92449,-5.23652 7.96301,-4.45317 15.08822,-9.68636 15.8338,-11.6293 1.0069,-2.62393 3.22352,-3.19553 8.61727,-2.22213 10.6636,1.92443 29.41372,-8.60982 30.38744,-17.07236 0.82299,-7.15249 6.17492,-8.24217 8.25728,-1.68124 2.16952,6.83558 7.34844,5.4027 16.22959,-4.49032 4.43068,-4.93549 15.20083,-12.85845 23.93367,-17.60657 8.73283,-4.74811 19.66066,-10.89703 24.28406,-13.66426 l 8.40617,-5.03131 0,5.64271 c 0,4.03076 -2.24128,7.02789 -7.84576,10.49165 -13.31192,8.22722 -12.13468,9.10913 25.77892,19.31203 12.94551,3.48375 24.36882,6.0868 25.38514,5.78454 1.01632,-0.30225 1.20897,0.48419 0.42812,1.74764 -0.78086,1.26345 -0.35147,2.29719 0.9542,2.29719 2.95904,0 3.13531,5.98979 0.22913,7.78591 -2.26226,1.39815 -29.22885,-4.87194 -54.14202,-12.58875 l -14.81638,-4.58934 -18.10591,10.52025 c -9.95825,5.78614 -19.09724,9.90757 -20.30888,9.15874 -1.21164,-0.74884 -3.38303,2.2141 -4.82533,6.58429 -3.06837,9.29725 -11.24984,15.50616 -17.72457,13.45117 -7.48371,-2.37524 -18.12237,7.0812 -18.12237,16.10851 0,7.80427 -3.56034,10.41699 -18.20287,13.358 -5.06581,1.01749 -6.45344,-0.007 -10.08741,-7.44846 z m 13.02486,-1.34288 c 1.93855,-1.54113 4.16075,-7.08921 4.93823,-12.32905 l 1.41359,-9.527 -5.38227,0 c -2.96025,0 -7.7472,1.91501 -10.63767,4.25557 l -5.2554,4.25557 3.84997,8.07348 c 4.18841,8.78319 5.73194,9.51796 11.07355,5.27143 z m 37.68188,-36.42675 c 0,-3.77281 -0.41055,-3.92442 -5.42078,-2.00181 -5.00873,1.92203 -4.40715,5.36428 0.93749,5.36428 2.49071,0 4.48329,-1.49443 4.48329,-3.36247 z m -11.08675,-30.50783 c 7.19295,-3.8338 14.78047,-8.85166 16.86116,-11.15079 l 3.78306,-4.18024 -3.70959,-5.66155 c -6.47345,-9.87974 -19.29776,-4.47314 -19.29776,8.13575 0,6.31024 -2.92578,8.46949 -5.60411,4.13586 -2.68211,-4.33973 -7.80564,-2.36197 -7.25892,2.80206 0.43014,4.0629 -0.44682,4.90732 -4.50972,4.34238 -5.54223,-0.77063 -6.52813,1.68271 -2.35373,5.85711 4.06272,4.06272 7.79177,3.34009 22.08961,-4.28058 z m -53.84092,-49.81671 c 7.3878,-6.72461 53.15624,-34.58801 60.44438,-36.79797 13.08667,-3.96823 17.93316,-4.71785 17.93316,-2.77379 0,1.01952 -3.01393,2.51565 -6.69762,3.32472 -3.68369,0.80907 -8.62039,3.91545 -10.97043,6.90305 -2.35005,2.9876 -5.66921,5.432 -7.37591,5.432 -3.16201,0 -26.39476,11.186 -44.23922,21.30009 -10.99714,6.23309 -14.02943,7.10397 -9.09436,2.6119 z m 90.70659,-48.57009 c 0.76198,-1.23291 2.33462,-2.24165 3.49477,-2.24165 1.16014,0 2.10935,1.00874 2.10935,2.24165 0,1.2329 -1.57265,2.24164 -3.49476,2.24164 -1.92212,0 -2.87133,-1.00874 -2.10936,-2.24164 z"
           style="fill:#897756" />
        <path
           inkscape:connector-curvature="0"
           id="path31088"
           d="m 533.82953,623.56322 c 0,-4.93646 8.98889,-11.96344 15.41865,-12.05338 5.79418,-0.0811 27.18141,-11.49548 31.66773,-16.90116 1.52833,-1.84153 6.12019,-3.34823 10.20414,-3.34823 4.08394,0 10.01287,-0.98378 13.17539,-2.18617 4.59533,-1.74714 5.75005,-1.50793 5.75005,1.19118 0,1.85754 1.52596,3.9629 3.39101,4.67859 5.01451,1.92425 10.55175,-3.65625 9.15397,-9.22546 -0.65621,-2.61454 -0.43363,-7.59349 0.49461,-11.06433 1.45429,-5.43777 2.07748,-5.84099 4.50564,-2.91523 8.86734,10.68448 5.86298,29.27008 -5.17952,32.04157 -3.21726,0.80748 -6.43186,0.88585 -7.14356,0.17415 -0.71169,-0.71169 -5.20405,0.70077 -9.98301,3.13882 -7.09575,3.61998 -8.68902,5.63332 -8.68902,10.97989 0,6.17146 -2.55295,10.23645 -4.93366,7.85573 -0.59164,-0.59164 -0.38665,-5.6161 0.45553,-11.16546 2.52596,-16.64418 -8.93114,-18.80924 -22.59094,-4.26905 -2.80251,2.98313 -7.1893,5.42904 -9.74842,5.43535 -2.55913,0.006 -8.68792,2.49669 -13.61954,5.53416 -10.61896,6.5404 -12.32905,6.83154 -12.32905,2.09903 z m 6.16453,-22.70013 c -5.56695,-0.84333 -6.16453,-1.82188 -6.16453,-10.09453 l 0,-9.16068 4.49751,5.18567 c 2.47363,2.85212 5.1201,4.56308 5.88105,3.80214 2.44063,-2.44064 -1.28862,-8.68929 -5.90658,-9.89692 -5.32716,-1.39308 -6.54316,-14.09643 -1.34934,-14.09643 1.71745,0 3.72996,-1.58266 4.47225,-3.51703 0.86049,-2.24241 2.87772,-3.03203 5.56606,-2.17878 2.90629,0.92242 4.54748,0.0724 5.2818,-2.73568 0.6026,-2.30434 13.6248,-11.5016 29.97969,-21.17392 15.90289,-9.405 31.43619,-19.54599 34.51846,-22.53553 3.08226,-2.98955 12.40017,-9.16718 20.70645,-13.72808 8.3063,-4.56089 16.15953,-10.26789 17.45163,-12.6822 1.29211,-2.41432 4.10682,-4.38967 6.25492,-4.38967 2.1481,0 6.24296,-1.63712 9.09967,-3.63804 2.85672,-2.00092 10.23345,-4.03167 16.39275,-4.51277 6.1593,-0.4811 13.05879,-1.87021 15.3322,-3.0869 2.27341,-1.21669 6.21727,-2.21217 8.76413,-2.21217 3.44494,0 4.63066,-1.43498 4.63066,-5.60411 0,-7.07053 5.83742,-7.4796 7.99715,-0.56042 0.86587,2.77404 4.46444,8.35721 7.99681,12.40706 9.18241,10.52756 7.17483,16.14314 -5.79447,16.20826 -8.066,0.0405 -10.88318,1.64285 -14.29788,8.13233 -2.52329,4.7954 -28.61078,22.97813 -51.94275,36.2036 -6.78098,3.84372 -18.28209,11.4712 -25.55802,16.94995 -17.61293,13.26249 -55.86556,32.82891 -64.18097,32.82891 -4.41827,0 -6.65178,1.12904 -6.65178,3.36247 0,2.04833 -2.08806,3.36247 -5.34267,3.36247 -3.45744,0 -5.75637,1.58199 -6.51508,4.48329 -0.64482,2.46581 -2.0234,4.33215 -3.0635,4.14742 -1.0401,-0.18472 -4.66513,-0.7561 -8.05562,-1.26971 z m 16.31874,-20.68603 c -1.28291,-2.39714 -3.33588,-4.97853 -4.56216,-5.73641 -3.15773,-1.95158 -2.7773,4.16719 0.46039,7.40488 4.1851,4.18511 6.68935,3.16646 4.10177,-1.66847 z m 9.83353,-7.64976 c -0.77738,-2.02582 -2.34973,-3.68331 -3.49411,-3.68331 -1.1451,0 -0.95559,2.10225 0.42146,4.67528 2.85437,5.33345 5.20832,4.57351 3.07265,-0.99197 z m 47.27681,-12.85329 c 15.59384,-8.80061 18.12471,-11.95372 15.50156,-19.31274 -1.13678,-3.18912 -3.79581,-6.88354 -5.90897,-8.20982 -5.73248,-3.59789 -16.47361,5.1215 -15.91069,12.9159 0.4218,5.84041 -2.2908,7.83219 -4.90531,3.60182 -2.76303,-4.47067 -7.84576,-2.26468 -7.84576,3.40518 0,4.90393 -0.73728,5.46178 -5.60412,4.24028 -6.58968,-1.6539 -6.89545,-0.49197 -1.8835,7.15724 4.46176,6.8095 8.88155,6.17744 26.55679,-3.79786 z m 26.82535,20.28239 c -4.03891,-6.53509 38.15418,-39.55415 56.66077,-44.34105 5.85331,-1.51402 2.46997,4.43438 -5.0437,8.86755 -4.31517,2.54602 -7.84576,6.38504 -7.84576,8.53117 0,3.71945 8.38367,9.11946 14.11576,9.09212 8.01992,-0.0383 50.89197,14.38022 50.89197,17.11569 0,5.12617 -12.15031,2.97014 -54.05297,-9.59152 l -19.30746,-5.78802 -15.29652,9.22576 c -16.49525,9.94875 -17.92759,10.43907 -20.12209,6.8883 z m -34.75262,-98.81017 c 3.76732,-3.13459 5.8255,-3.74453 6.43775,-1.90781 1.02606,3.0782 -3.62133,6.61552 -8.61307,6.55577 -2.30167,-0.0276 -1.61539,-1.49391 2.17532,-4.64796 z"
           style="fill:#5f584f" />
        <path
           inkscape:connector-curvature="0"
           id="path31086"
           d="m 533.82953,622.64349 c 0,-2.94342 1.49443,-4.48329 4.351,-4.48329 2.39304,0 4.97443,-1.00874 5.73641,-2.24165 0.76197,-1.23291 3.30863,-2.24165 5.65924,-2.24165 5.74855,0 32.84393,-15.05053 34.40117,-19.10864 0.86231,-2.24716 3.22814,-2.83211 7.7758,-1.92258 3.59502,0.71901 8.75978,0.11735 11.47726,-1.33699 4.12516,-2.20772 5.44399,-1.96738 7.98833,1.4558 4.00819,5.39264 11.1558,1.3852 11.1558,-6.25471 0,-11.21978 6.25702,-13.38452 9.93658,-3.43774 3.8726,10.46866 -4.70829,21.95293 -15.93284,21.32377 -2.86658,-0.16068 -6.97726,0.45665 -9.13485,1.37184 -2.73212,1.15889 -3.92288,0.64333 -3.92288,-1.69849 0,-8.79271 -14.80732,-7.88792 -28.83582,1.76198 -6.27315,4.31517 -12.47897,7.84576 -13.79071,7.84576 -1.31175,0 -6.41436,2.05564 -11.33915,4.56808 -4.92479,2.51244 -9.91675,3.97316 -11.09325,3.24604 -1.18473,-0.7322 -1.54349,0.23009 -0.80411,2.15686 0.73423,1.9134 0.21831,3.4789 -1.1465,3.4789 -1.36482,0 -2.48148,-2.01748 -2.48148,-4.48329 z m 0.0897,-31.94346 0.0898,-9.52699 3.34431,6.16453 c 3.47935,6.41344 9.92606,8.42964 9.92606,3.10436 0,-1.68309 -2.06343,-5.6834 -4.58542,-8.88958 l -4.58542,-5.82942 3.7098,-5.66187 c 2.04039,-3.11403 4.51717,-5.16289 5.50395,-4.55302 3.25044,2.00888 8.92368,-1.55125 8.92368,-5.59988 0,-3.50849 45.05038,-31.49782 58.8432,-36.55865 6.81662,-2.50114 4.24703,2.33722 -3.92288,7.3865 -5.51734,3.4099 -7.84576,6.48125 -7.84576,10.3491 0,4.82427 -0.55662,5.20226 -4.52962,3.07598 -6.05349,-3.23973 -8.55219,-1.30205 -7.23131,5.6077 0.85516,4.47349 0.33895,5.40259 -2.41466,4.34593 -1.92629,-0.73919 -3.81196,-2.74873 -4.19038,-4.46566 -0.5459,-2.47686 -2.65591,-2.11809 -10.21501,1.73689 -11.47316,5.85106 -12.38767,9.52707 -1.8797,7.55576 6.76308,-1.26876 8.22058,-0.62955 12.60536,5.52831 5.8341,8.19324 9.49181,7.86726 27.82586,-2.47983 17.22025,-9.71851 20.68262,-14.16157 17.53472,-22.50131 -2.32249,-6.15297 -2.17269,-6.59928 1.79258,-5.34075 5.30708,1.6844 5.36248,0.44166 0.47419,-10.6379 -2.83726,-6.4308 -4.90508,-8.45704 -7.84576,-7.68804 -7.49178,1.95914 -4.01384,-3.17957 6.27412,-9.27012 5.64697,-3.34306 14.58482,-9.24254 19.86189,-13.10997 12.13323,-8.89213 25.59079,-15.33358 27.67342,-13.24588 2.10412,2.10924 -6.14662,8.79387 -27.79513,22.51922 -15.98797,10.13651 -17.08891,11.27605 -11.51382,11.91753 6.90678,0.79471 7.11039,1.18053 3.84401,7.28382 -2.04785,3.82644 -1.55176,4.33593 4.22184,4.33593 4.60632,0 6.88141,-1.29651 7.68808,-4.38121 0.63638,-2.43353 3.7422,-4.92486 6.98638,-5.60412 3.21237,-0.6726 8.36252,-1.74649 11.44478,-2.38643 3.60235,-0.74793 5.60412,-2.68439 5.60412,-5.42129 0,-4.80777 12.66966,-13.59 19.60557,-13.59 2.47814,0 5.88966,-1.97163 7.58117,-4.3814 3.96399,-5.6472 15.40453,-8.68188 15.40453,-4.08616 0,1.77468 -2.52185,4.57634 -5.60411,6.22592 -3.08227,1.64958 -5.60412,4.39875 -5.60412,6.10927 0,3.05766 -12.98468,16.30719 -15.98122,16.30719 -1.39235,0 -23.73475,13.58755 -72.56379,44.12975 -27.98179,17.5024 -44.17943,25.35123 -52.32813,25.35646 -5.45344,0.004 -7.79603,1.15516 -8.59951,4.22768 -0.76165,2.91255 -2.47653,3.86402 -5.52669,3.06639 -3.17612,-0.83058 -4.7746,0.19038 -5.67222,3.62289 -0.96497,3.69005 -2.97845,4.77937 -8.83415,4.77937 l -7.58431,0 0.0897,-9.527 z m 24.51851,-7.84576 c -0.0771,-6.06641 -8.22157,-15.58245 -10.98262,-12.83211 -1.58179,1.57565 -0.92493,4.57317 2.08767,9.52699 4.81285,7.91411 8.97315,9.45996 8.89495,3.30512 z m 11.25807,-6.89459 c 0,-2.2509 -2.52185,-6.4617 -5.60411,-9.35734 -6.76955,-6.35966 -8.03393,-1.30898 -1.98384,7.92463 4.27854,6.52987 7.58795,7.15473 7.58795,1.43271 z m 145.70698,-0.36056 c -30.314,-8.18753 -36.46005,-10.6409 -35.20792,-14.05427 0.56255,-1.53355 2.40984,-2.42342 4.10509,-1.97749 49.21228,12.94506 64.72752,17.89849 64.72752,20.66501 0,3.3182 -8.54331,2.14099 -33.62469,-4.63325 z m -49.31621,-17.69877 c 0,-1.23291 1.00874,-2.86508 2.24165,-3.62706 1.23291,-0.76198 2.24165,-0.37667 2.24165,0.85623 0,1.23291 -1.00874,2.86508 -2.24165,3.62706 -1.23291,0.76198 -2.24165,0.37667 -2.24165,-0.85623 z m 30.26222,-20.4394 c 0.76198,-1.23291 1.83025,-2.24165 2.37394,-2.24165 0.54369,0 0.98853,1.00874 0.98853,2.24165 0,1.2329 -1.06827,2.24164 -2.37394,2.24164 -1.30567,0 -1.75051,-1.00874 -0.98853,-2.24164 z m 30.16848,-49.49138 c -2.98166,-5.57126 -1.34457,-11.03306 3.30699,-11.03306 5.09888,0 8.93609,8.49406 5.63441,12.47234 -3.66596,4.41722 -6.00895,4.04007 -8.9414,-1.43928 z m -33.53095,0.24575 c 0,-4.41815 12.78237,-15.7621 17.76074,-15.7621 6.4944,0 6.044,7.54133 -0.71491,11.96993 -7.61473,4.98937 -17.04583,7.08749 -17.04583,3.79217 z m 24.65811,-26.97033 c 0,-1.23291 1.00874,-2.24165 2.24164,-2.24165 1.23291,0 2.24165,1.00874 2.24165,2.24165 0,1.2329 -1.00874,2.24164 -2.24165,2.24164 -1.2329,0 -2.24164,-1.00874 -2.24164,-2.24164 z"
           style="fill:#594d33" />
        <path
           inkscape:connector-curvature="0"
           id="path31084"
           d="m 533.82953,624.88513 c 0,-1.2329 1.06827,-2.24164 2.37394,-2.24164 1.30567,0 1.75051,1.00874 0.98853,2.24164 -0.76198,1.23291 -1.83025,2.24165 -2.37394,2.24165 -0.54369,0 -0.98853,-1.00874 -0.98853,-2.24165 z m 12.32905,-8.96658 c 0.76198,-1.23291 2.39416,-2.24165 3.62706,-2.24165 1.23291,0 1.61821,1.00874 0.85623,2.24165 -0.76197,1.23291 -2.39415,2.24165 -3.62706,2.24165 -1.2329,0 -1.61821,-1.00874 -0.85623,-2.24165 z M 603.2417,599.0112 c -2.16806,-2.61235 -2.2372,-4.08971 -0.28287,-6.04404 1.95433,-1.95434 3.36193,-1.52621 5.75866,1.75151 5.14053,7.0301 0.0852,10.99306 -5.47579,4.29253 z m 15.03742,1.97731 c -0.8141,-0.8141 0.53089,-2.88878 2.98886,-4.61041 3.01775,-2.11372 4.46903,-5.67975 4.46903,-10.98117 0,-4.66315 0.9102,-7.28842 2.24164,-6.46554 3.80519,2.35174 2.54076,15.8468 -1.85774,19.82739 -4.52453,4.09465 -5.65534,4.41618 -7.84179,2.22973 z m -84.39975,-9.37752 0.0498,-8.1963 4.3836,5.60411 c 5.5282,7.06739 5.5282,8.17044 0,9.6161 -3.88538,1.01605 -4.47664,0.0793 -4.43345,-7.02391 z m 11.15839,-9.31713 c -5.61829,-11.01276 -2.97329,-11.77096 3.92288,-1.12451 5.63026,8.69212 6.02504,10.0911 2.84762,10.0911 -1.20785,0 -4.25458,-4.03497 -6.7705,-8.96659 z m 11.7017,-6.7422 c -2.81085,-4.92213 -4.17141,-8.94932 -3.02347,-8.94932 1.81913,0 11.49658,14.25994 11.49658,16.94048 0,3.51664 -4.1208,-0.36978 -8.47311,-7.99116 z m 13.37026,-2.78479 c -4.63169,-10.40939 -4.50433,-12.73117 0.47184,-8.60131 2.5839,2.14445 3.69275,1.87013 5.50466,-1.3618 l 2.26896,-4.04718 6.44082,6.16453 c 3.54245,3.39049 8.4031,6.16969 10.80145,6.17601 3.08195,0.008 1.73134,1.63091 -4.60595,5.53415 -12.71142,7.82918 -15.94493,7.23078 -20.88178,-3.8644 z m 174.43452,7.28535 c 0,-1.23291 1.06827,-2.24165 2.37394,-2.24165 1.30567,0 1.75051,1.00874 0.98853,2.24165 -0.76198,1.2329 -1.83025,2.24164 -2.37394,2.24164 -0.54369,0 -0.98853,-1.00874 -0.98853,-2.24164 z m -28.02057,-6.50884 c -17.63532,-4.95726 -22.20064,-6.78325 -20.70323,-8.28066 1.52363,-1.52363 37.8252,7.91874 40.76596,10.60359 3.17566,2.89934 -4.74867,1.98183 -20.06273,-2.32293 z M 558.48763,557.63576 c 0,-1.23291 1.06828,-2.24165 2.37395,-2.24165 1.30566,0 1.7505,1.00874 0.98852,2.24165 -0.76198,1.2329 -1.83025,2.24164 -2.37394,2.24164 -0.54369,0 -0.98853,-1.00874 -0.98853,-2.24164 z m 79.94801,-20.56383 c -1.75594,-6.71473 0.002,-8.70588 7.20166,-8.15728 4.0168,0.30607 9.22313,-1.96291 14.98375,-6.53009 4.85543,-3.84953 11.3499,-7.32804 14.43217,-7.73002 3.57857,-0.46671 5.83678,-2.35131 6.24784,-5.21417 0.63523,-4.42413 15.36915,-14.5707 21.15824,-14.5707 1.63933,0 4.70801,-2.01748 6.8193,-4.48329 2.1113,-2.46581 5.61388,-4.44701 7.78354,-4.40267 3.22593,0.0659 2.88469,0.98506 -1.87254,5.0437 -3.19955,2.7297 -6.38369,6.56522 -7.07586,8.52338 -0.69217,1.95815 -9.1705,8.42108 -18.84074,14.36205 -9.67024,5.94097 -23.62628,14.67843 -31.01343,19.41658 -15.49916,9.94123 -18.07573,10.42766 -19.82393,3.74251 z m -4.61304,-14.36502 c -2.00722,-5.23074 -1.85846,-5.42078 4.24346,-5.42078 6.11881,0 7.09284,2.09791 2.91414,6.27661 -3.61553,3.61553 -5.5296,3.38667 -7.1576,-0.85583 z m -6.88672,-9.77778 c -0.71905,-1.16345 3.50857,-4.82083 9.3947,-8.12752 5.88614,-3.30669 13.22392,-7.89852 16.30618,-10.20408 8.17506,-6.11502 22.6819,-13.6595 23.90782,-12.43358 1.26545,1.26545 -3.39245,4.7097 -28.03109,20.72746 -20.63359,13.41404 -19.74609,13.00118 -21.57761,10.03772 z m 100.98308,-28.4677 c -0.77738,-2.02583 -0.95242,-4.14432 -0.38897,-4.70776 1.78151,-1.78152 5.80602,1.79582 5.80602,5.16089 0,4.39705 -3.67379,4.08974 -5.41705,-0.45313 z m -28.1505,-3.14839 c 3.56261,-6.6568 10.90598,-9.86525 12.5821,-5.49735 1.7038,4.44003 0.88029,5.2542 -7.84575,7.75679 l -7.02361,2.01435 2.28726,-4.27379 z"
           style="fill:#34302b" />
      </g>
      <path
         id="path3413-2"
         d="M 465.85035,459.31656 A 108.21429,108.21429 0 0 0 357.6355,567.5314 a 108.21429,108.21429 0 0 0 108.21485,108.21484 108.21429,108.21429 0 0 0 50.02734,-12.31445 101.5228,101.5228 0 0 1 -35.13867,6.35352 101.5228,101.5228 0 0 1 -101.52344,-101.52344 101.5228,101.5228 0 0 1 101.52344,-101.52344 101.5228,101.5228 0 0 1 44.37109,10.34961 108.21429,108.21429 0 0 0 -59.25976,-17.77148 z"
         style="fill:#2b1100"
         inkscape:connector-curvature="0" />
      <path
         inkscape:connector-curvature="0"
         id="path3381-3"
         d="M 468.61806,449.56897 A 116.67262,116.67262 0 0 0 351.94424,566.24084 116.67262,116.67262 0 0 0 468.61806,682.91467 116.67262,116.67262 0 0 0 585.28994,566.24084 116.67262,116.67262 0 0 0 468.61806,449.56897 Z M 468.1122,464.2135 A 101.5228,101.5228 0 0 1 569.63564,565.73693 101.5228,101.5228 0 0 1 468.1122,667.25842 101.5228,101.5228 0 0 1 366.58877,565.73693 101.5228,101.5228 0 0 1 468.1122,464.2135 Z"
         style="fill:#d45500" />
      <ellipse
         ry="121.21831"
         rx="61.114231"
         cy="570.51941"
         cx="325.7742"
         id="path3465"
         style="fill:#ff6600" />
      <ellipse
         ry="121.21831"
         rx="61.114231"
         cy="570.51984"
         cx="341.43155"
         id="path3465-2"
         style="fill:#2b1100" />
      <ellipse
         ry="105.56094"
         rx="45.456863"
         cy="567.99402"
         cx="343.45187"
         id="path3495"
         style="fill:#ff6600" />
      <ellipse
         ry="105.56094"
         rx="45.456863"
         cy="567.99414"
         cx="358.60413"
         id="path3495-5"
         style="fill:#2b1100" />
    </g>
  </g>
</svg>
